<svg width="24" height="24" viewBox="0 0 24 24" fill="none" xmlns="http://www.w3.org/2000/svg">
<circle cx="12" cy="12" r="11.5" stroke="white"/>
<path d="M7 8.4H8.11111M8.11111 8.4H17M8.11111 8.4V16.8C8.11111 17.1183 8.22817 17.4235 8.43655 17.6485C8.64492 17.8736 8.92754 18 9.22222 18H14.7778C15.0725 18 15.3551 17.8736 15.5635 17.6485C15.7718 17.4235 15.8889 17.1183 15.8889 16.8V8.4M9.77778 8.4V7.2C9.77778 6.88174 9.89484 6.57652 10.1032 6.35147C10.3116 6.12643 10.5942 6 10.8889 6H13.1111C13.4058 6 13.6884 6.12643 13.8968 6.35147C14.1052 6.57652 14.2222 6.88174 14.2222 7.2V8.4M10.8889 11.4V15M13.1111 11.4V15" stroke="white" stroke-linecap="round" stroke-linejoin="round"/>
</svg>
