<svg width="18" height="18" viewBox="0 0 18 18" fill="none" xmlns="http://www.w3.org/2000/svg">
<path d="M6.18306 0.492986C3.92367 1.2645 2.0585 2.86654 0.981305 4.96089C0.61202 5.67496 0.342945 6.43472 0.181398 7.2195C-0.280459 9.46391 0.147246 11.7965 1.37749 13.7427C2.60774 15.6889 4.54811 17.1026 6.80381 17.696C8.34307 18.0845 9.95553 18.1009 11.5027 17.7437C12.9458 17.4357 14.2756 16.7466 15.3481 15.7511C16.4206 14.7556 17.195 13.4915 17.5876 12.0957C18.0366 10.542 18.1161 8.90815 17.8202 7.31964H9.17681V10.8216H14.1837C14.0827 11.3809 13.868 11.9146 13.5524 12.391C13.2368 12.8674 12.8267 13.2768 12.3466 13.5947C11.7354 13.991 11.0465 14.2576 10.324 14.3774C9.59682 14.5093 8.8511 14.5093 8.12389 14.3774C7.3893 14.2299 6.69374 13.9351 6.08091 13.5115C5.10463 12.8317 4.37296 11.8663 3.99078 10.7538C3.59871 9.61863 3.59871 8.38853 3.99078 7.25339C4.26724 6.45682 4.72267 5.73129 5.32343 5.13036C6.01286 4.43206 6.88506 3.93329 7.84445 3.68871C8.80385 3.44413 9.81341 3.46318 10.7625 3.74377C11.5045 3.96631 12.1824 4.35747 12.741 4.8854L14.4289 3.23227C14.7259 2.93801 15.037 2.65145 15.3231 2.34794C14.4665 1.56643 13.4623 0.956693 12.367 0.553072C10.3734 -0.160153 8.19065 -0.181362 6.18306 0.492986Z" fill="white"/>
<path d="M6.18306 0.492986C8.19008 -0.181853 10.3722 -0.16336 12.367 0.545377C13.4631 0.947484 14.4676 1.55739 15.3231 2.34024C15.0371 2.64837 14.7259 2.93031 14.4289 3.22458L12.7411 4.87771C12.1811 4.35185 11.5036 3.96146 10.7625 3.73762C9.88774 3.4793 8.96044 3.44272 8.06733 3.63131C7.02373 3.85676 6.07004 4.37618 5.32345 5.12575C4.72203 5.72558 4.26649 6.45076 3.99079 7.24724C2.98973 6.47691 1.98708 5.72506 0.981305 4.96089C2.0577 2.86594 3.92316 1.26365 6.18306 0.492986Z" fill="#EA4335"/>
<path d="M0.186126 7.21334C0.347273 6.42789 0.615254 5.6672 0.98289 4.95166C1.98657 5.7148 2.9913 6.47691 3.99708 7.238C3.60111 8.37303 3.60111 9.60488 3.99708 10.7399C2.99444 11.5041 1.99233 12.2662 0.990748 13.0262C0.0643714 11.2321 -0.219053 9.18458 0.186126 7.21334Z" fill="#FBBC05"/>
<path d="M9.1831 7.30579H17.8265C18.1199 8.89446 18.0404 10.5278 17.5939 12.0818C17.1798 13.5102 16.3762 14.8008 15.2696 15.8148L12.3529 13.5963C12.8329 13.2784 13.2428 12.869 13.5582 12.3926C13.8735 11.9162 14.0878 11.3824 14.1884 10.8231H9.17839C9.18363 9.6481 9.1852 8.47566 9.1831 7.30579Z" fill="#4285F4"/>
<path d="M0.982895 13.0309C1.98448 12.2729 2.98607 11.5107 3.98765 10.7445C4.37423 11.8591 5.11017 12.8254 6.09036 13.5054C6.70365 13.9282 7.39903 14.2229 8.13334 14.3712C8.86039 14.5048 9.60643 14.5048 10.3335 14.3712C11.056 14.2509 11.745 13.9838 12.356 13.587L15.2728 15.8071C14.2097 16.7542 12.9138 17.4142 11.5121 17.7222C9.96489 18.0785 8.35262 18.0621 6.81326 17.6744C5.59687 17.3573 4.46116 16.7954 3.47848 16.0244C2.43603 15.2148 1.58468 14.1935 0.982895 13.0309Z" fill="#34A853"/>
</svg>
