<svg width="42" height="42" viewBox="0 0 42 42" fill="none" xmlns="http://www.w3.org/2000/svg">
<path d="M11.1612 18.9999L19.2902 1C20.9072 1 22.4579 1.63214 23.6013 2.75735C24.7446 3.88256 25.387 5.40867 25.387 6.99996V14.9999H36.8895C37.4786 14.9933 38.0622 15.1129 38.5998 15.3503C39.1373 15.5878 39.616 15.9374 40.0026 16.3749C40.3892 16.8125 40.6746 17.3275 40.8388 17.8844C41.0031 18.4413 41.0424 19.0266 40.954 19.5999L38.1495 37.5998C38.0025 38.5536 37.5102 39.423 36.7633 40.0478C36.0164 40.6726 35.0652 41.0107 34.085 40.9997H11.1612M11.1612 18.9999V40.9997M11.1612 18.9999H5.06449C3.98652 18.9999 2.9527 19.4213 2.19046 20.1715C1.42822 20.9216 1 21.939 1 22.9999V36.9998C1 38.0606 1.42822 39.078 2.19046 39.8282C2.9527 40.5783 3.98652 40.9997 5.06449 40.9997H11.1612" stroke="white" stroke-width="2" stroke-linecap="round" stroke-linejoin="round"/>
</svg>
