<svg width="9" height="12" viewBox="0 0 9 12" fill="none" xmlns="http://www.w3.org/2000/svg">
<path d="M4.5 4.5V6L5.25 6.75M6.755 8.675L6.58 10.59C6.55747 10.8393 6.44225 11.0711 6.2571 11.2396C6.07195 11.4081 5.83034 11.501 5.58 11.5H3.415C3.16466 11.501 2.92305 11.4081 2.7379 11.2396C2.55275 11.0711 2.43753 10.8393 2.415 10.59L2.24 8.675M2.245 3.325L2.42 1.41001C2.44245 1.16155 2.55696 0.93045 2.74106 0.762084C2.92515 0.593718 3.16553 0.500243 3.415 0.500008H5.59C5.84034 0.498993 6.08195 0.591907 6.2671 0.760394C6.45225 0.928881 6.56747 1.16069 6.59 1.41001L6.765 3.325M8 6C8 7.93299 6.433 9.49999 4.5 9.49999C2.567 9.49999 1 7.93299 1 6C1 4.06701 2.567 2.50001 4.5 2.50001C6.433 2.50001 8 4.06701 8 6Z" stroke="#EA4335" stroke-linecap="round" stroke-linejoin="round"/>
</svg>
