<svg width="16" height="20" viewBox="0 0 16 20" fill="none" xmlns="http://www.w3.org/2000/svg">
<path d="M10.7129 3.42285C11.3086 2.7002 11.7285 1.71387 11.7285 0.717773C11.7285 0.581055 11.7188 0.444336 11.6992 0.336914C10.7227 0.375977 9.55078 0.981445 8.85742 1.80176C8.30078 2.42676 7.79297 3.42285 7.79297 4.41895C7.79297 4.5752 7.82227 4.72168 7.83203 4.77051C7.89062 4.78027 7.98828 4.7998 8.0957 4.7998C8.96484 4.7998 10.0586 4.21387 10.7129 3.42285ZM11.3965 5.00488C9.94141 5.00488 8.75 5.89355 7.98828 5.89355C7.17773 5.89355 6.12305 5.06348 4.85352 5.06348C2.44141 5.06348 0 7.05566 0 10.8057C0 13.1494 0.898438 15.6201 2.02148 17.2119C2.97852 18.5596 3.81836 19.6631 5.0293 19.6631C6.2207 19.6631 6.74805 18.8721 8.23242 18.8721C9.73633 18.8721 10.0781 19.6436 11.3965 19.6436C12.7051 19.6436 13.5742 18.4424 14.4043 17.2607C15.3223 15.9033 15.7129 14.585 15.7227 14.5166C15.6445 14.4971 13.1445 13.4717 13.1445 10.6104C13.1445 8.12988 15.1074 7.0166 15.2246 6.92871C13.9258 5.06348 11.9434 5.00488 11.3965 5.00488Z" fill="black"/>
</svg>
