<svg width="16" height="14" viewBox="0 0 16 14" fill="none" xmlns="http://www.w3.org/2000/svg">
<path d="M11.3467 13.3145V11.9811C11.3467 11.2739 11.056 10.5956 10.5385 10.0955C10.0211 9.59541 9.31932 9.31445 8.58756 9.31445H3.75911C3.02735 9.31445 2.32556 9.59541 1.80813 10.0955C1.29069 10.5956 1 11.2739 1 11.9811V13.3145M13.2756 5.86819V6.50456L13.6451 6.82274M14.3866 7.6394L14.3004 8.45183C14.2893 8.5576 14.2325 8.65594 14.1413 8.72742C14.0501 8.7989 13.931 8.83832 13.8077 8.83789H12.741C12.6176 8.83832 12.4986 8.7989 12.4074 8.72742C12.3161 8.65594 12.2594 8.5576 12.2483 8.45183L12.1621 7.6394M12.1645 5.36971L12.2507 4.55729C12.2618 4.45188 12.3182 4.35384 12.4089 4.28241C12.4996 4.21098 12.6181 4.17133 12.741 4.17123H13.8126C13.9359 4.1708 14.055 4.21022 14.1462 4.28169C14.2374 4.35317 14.2942 4.45151 14.3053 4.55729L14.3915 5.36971M8.93245 3.98112C8.93245 5.45388 7.69715 6.64779 6.17333 6.64779C4.64952 6.64779 3.41422 5.45388 3.41422 3.98112C3.41422 2.50836 4.64952 1.31445 6.17333 1.31445C7.69715 1.31445 8.93245 2.50836 8.93245 3.98112ZM15 6.50456C15 7.32462 14.2279 7.9894 13.2756 7.9894C12.3232 7.9894 11.5511 7.32462 11.5511 6.50456C11.5511 5.6845 12.3232 5.01971 13.2756 5.01971C14.2279 5.01971 15 5.6845 15 6.50456Z" stroke="#F5F5F5" stroke-width="0.8" stroke-linecap="round" stroke-linejoin="round"/>
</svg>
