<svg width="16" height="16" viewBox="0 0 16 16" fill="none" xmlns="http://www.w3.org/2000/svg">
<path d="M1.25 7.79561L2.75 6.25336M2.75 6.25336L8 0.855469L13.25 6.25336M2.75 6.25336V13.9646C2.75 14.3905 3.08579 14.7357 3.5 14.7357H5.75M13.25 6.25336L14.75 7.79561M13.25 6.25336V13.9646C13.25 14.3905 12.9142 14.7357 12.5 14.7357H10.25M5.75 14.7357C6.16421 14.7357 6.5 14.3905 6.5 13.9646V10.8801C6.5 10.4542 6.83579 10.109 7.25 10.109H8.75C9.16421 10.109 9.5 10.4542 9.5 10.8801V13.9646C9.5 14.3905 9.83579 14.7357 10.25 14.7357M5.75 14.7357H10.25" stroke="#F5F5F5" stroke-width="1.2" stroke-linecap="round" stroke-linejoin="round"/>
</svg>
