<svg width="13" height="15" viewBox="0 0 13 15" fill="none" xmlns="http://www.w3.org/2000/svg">
<path d="M1 3.6H2.22222M2.22222 3.6H12M2.22222 3.6V12.7C2.22222 13.0448 2.35099 13.3754 2.5802 13.6192C2.80941 13.863 3.12029 14 3.44444 14H9.55556C9.87971 14 10.1906 13.863 10.4198 13.6192C10.649 13.3754 10.7778 13.0448 10.7778 12.7V3.6M4.05556 3.6V2.3C4.05556 1.95522 4.18433 1.62456 4.41354 1.38076C4.64275 1.13696 4.95362 1 5.27778 1H7.72222C8.04638 1 8.35725 1.13696 8.58646 1.38076C8.81567 1.62456 8.94444 1.95522 8.94444 2.3V3.6M5.27778 6.85V10.75M7.72222 6.85V10.75" stroke="#F5F5F5" stroke-linecap="round" stroke-linejoin="round"/>
</svg>
