<svg width="19" height="16" viewBox="0 0 19 16" fill="none" xmlns="http://www.w3.org/2000/svg">
<path d="M13.3636 14.9805V13.4249C13.3636 12.5998 13.038 11.8085 12.4583 11.225C11.8787 10.6416 11.0925 10.3138 10.2727 10.3138H4.09091C3.27115 10.3138 2.48496 10.6416 1.90531 11.225C1.32565 11.8085 1 12.5998 1 13.4249V14.9805M18 14.9805V13.4249C17.9995 12.7356 17.7715 12.066 17.352 11.5212C16.9324 10.9764 16.3449 10.5872 15.6818 10.4149M12.5909 1.08158C13.2558 1.25293 13.8451 1.64213 14.2659 2.18782C14.6867 2.73352 14.9152 3.40467 14.9152 4.09547C14.9152 4.78627 14.6867 5.45742 14.2659 6.00312C13.8451 6.54881 13.2558 6.93801 12.5909 7.10936M10.2727 4.09158C10.2727 5.8098 8.88888 7.20269 7.18182 7.20269C5.47476 7.20269 4.09091 5.8098 4.09091 4.09158C4.09091 2.37336 5.47476 0.980469 7.18182 0.980469C8.88888 0.980469 10.2727 2.37336 10.2727 4.09158Z" stroke="#F5F5F5" stroke-linecap="round" stroke-linejoin="round"/>
</svg>
