<svg width="42" height="42" viewBox="0 0 42 42" fill="none" xmlns="http://www.w3.org/2000/svg">
<rect x="1" y="1" width="40" height="40" rx="20" stroke="#828282"/>
<path d="M24.3333 24.3313L21 20.998M21 20.998L17.6666 24.3313M21 20.998V28.498M27.9916 26.323C28.8044 25.8798 29.4465 25.1787 29.8165 24.3301C30.1866 23.4816 30.2635 22.534 30.0351 21.6369C29.8068 20.7397 29.2862 19.9442 28.5555 19.3758C27.8248 18.8074 26.9257 18.4986 26 18.498H24.95C24.6977 17.5223 24.2276 16.6166 23.5749 15.8488C22.9222 15.081 22.104 14.4712 21.1817 14.0651C20.2594 13.6591 19.2571 13.4674 18.2501 13.5045C17.243 13.5416 16.2575 13.8065 15.3676 14.2793C14.4777 14.7521 13.7066 15.4205 13.1122 16.2343C12.5177 17.048 12.1155 17.9859 11.9358 18.9774C11.756 19.969 11.8034 20.9884 12.0743 21.959C12.3452 22.9296 12.8327 23.8262 13.5 24.5813" stroke="white" stroke-linecap="round" stroke-linejoin="round"/>
</svg>
