<svg width="14" height="12" viewBox="0 0 14 12" fill="none" xmlns="http://www.w3.org/2000/svg">
<path d="M7 3.12261C7 2.53324 6.74714 1.96801 6.29706 1.55126C5.84697 1.13452 5.23652 0.900391 4.6 0.900391H1V9.23372H5.2C5.67739 9.23372 6.13523 9.40932 6.47279 9.72188C6.81036 10.0344 7 10.4584 7 10.9004M7 3.12261V10.9004M7 3.12261C7 2.53324 7.25286 1.96801 7.70294 1.55126C8.15303 1.13452 8.76348 0.900391 9.4 0.900391H13V9.23372H8.8C8.32261 9.23372 7.86477 9.40932 7.52721 9.72188C7.18964 10.0344 7 10.4584 7 10.9004" stroke="#F5F5F5" stroke-linecap="round" stroke-linejoin="round"/>
</svg>
