<svg width="15" height="15" viewBox="0 0 15 15" fill="none" xmlns="http://www.w3.org/2000/svg">
<path d="M10.1 4.49139V7.74139C10.1 8.25856 10.3054 8.75455 10.6711 9.12025C11.0368 9.48594 11.5328 9.69139 12.05 9.69139C12.5672 9.69139 13.0632 9.48594 13.4289 9.12025C13.7946 8.75455 14 8.25856 14 7.74139V7.09139C13.9999 5.62436 13.5035 4.2005 12.5916 3.05134C11.6797 1.90217 10.4059 1.09529 8.97722 0.761887C7.54858 0.428484 6.04916 0.588171 4.72278 1.21498C3.3964 1.84179 2.32106 2.89886 1.67162 4.21431C1.02218 5.52976 0.836834 7.02622 1.14572 8.46036C1.4546 9.89451 2.23954 11.182 3.37291 12.1135C4.50629 13.0449 5.92143 13.5656 7.38825 13.5908C8.85506 13.6161 10.2873 13.1443 11.452 12.2524M10.1 7.09139C10.1 8.52733 8.93594 9.69139 7.5 9.69139C6.06406 9.69139 4.90001 8.52733 4.90001 7.09139C4.90001 5.65545 6.06406 4.49139 7.5 4.49139C8.93594 4.49139 10.1 5.65545 10.1 7.09139Z" stroke="#F5F5F5" stroke-linecap="round" stroke-linejoin="round"/>
</svg>
