<svg width="25" height="25" viewBox="0 0 25 25" fill="none" xmlns="http://www.w3.org/2000/svg">
<path d="M15.625 17.7083H20.8333L19.3698 16.2449C18.9729 15.848 18.75 15.3097 18.75 14.7484V11.4583C18.75 8.73705 17.0108 6.42197 14.5833 5.56397V5.20833C14.5833 4.05774 13.6506 3.125 12.5 3.125C11.3494 3.125 10.4166 4.05774 10.4166 5.20833V5.56397C7.98914 6.42197 6.24996 8.73705 6.24996 11.4583V14.7484C6.24996 15.3097 6.02699 15.848 5.6301 16.2449L4.16663 17.7083H9.37496M15.625 17.7083V18.75C15.625 20.4759 14.2258 21.875 12.5 21.875C10.7741 21.875 9.37496 20.4759 9.37496 18.75V17.7083M15.625 17.7083H9.37496" stroke="#F5F5F5" stroke-width="1.2" stroke-linecap="round" stroke-linejoin="round"/>
</svg>
