<svg width="15" height="15" viewBox="0 0 15 15" fill="none" xmlns="http://www.w3.org/2000/svg">
<path d="M7.5 9.24538C8.47905 9.24538 9.27273 8.45171 9.27273 7.47266C9.27273 6.49361 8.47905 5.69993 7.5 5.69993C6.52095 5.69993 5.72727 6.49361 5.72727 7.47266C5.72727 8.45171 6.52095 9.24538 7.5 9.24538Z" stroke="#F5F5F5" stroke-linecap="round" stroke-linejoin="round"/>
<path d="M11.8727 9.24538C11.7941 9.42361 11.7706 9.62132 11.8054 9.813C11.8401 10.0047 11.9315 10.1816 12.0677 10.3208L12.1032 10.3563C12.2131 10.4661 12.3002 10.5964 12.3597 10.7399C12.4192 10.8833 12.4498 11.0371 12.4498 11.1924C12.4498 11.3477 12.4192 11.5015 12.3597 11.645C12.3002 11.7885 12.2131 11.9188 12.1032 12.0286C11.9934 12.1384 11.8631 12.2256 11.7196 12.2851C11.5761 12.3446 11.4224 12.3752 11.267 12.3752C11.1117 12.3752 10.9579 12.3446 10.8145 12.2851C10.671 12.2256 10.5407 12.1384 10.4309 12.0286L10.3955 11.9931C10.2562 11.8569 10.0793 11.7655 9.88762 11.7307C9.69593 11.696 9.49823 11.7195 9.32 11.7981C9.14523 11.873 8.99617 11.9974 8.89118 12.1559C8.78619 12.3145 8.72985 12.5002 8.72909 12.6904V12.7908C8.72909 13.1043 8.60458 13.4049 8.38294 13.6265C8.16131 13.8481 7.86071 13.9727 7.54727 13.9727C7.23383 13.9727 6.93323 13.8481 6.7116 13.6265C6.48997 13.4049 6.36545 13.1043 6.36545 12.7908V12.7377C6.36088 12.5421 6.29757 12.3524 6.18376 12.1933C6.06994 12.0341 5.91089 11.9129 5.72727 11.8454C5.54904 11.7667 5.35134 11.7433 5.15965 11.778C4.96796 11.8128 4.79108 11.9042 4.65182 12.0404L4.61636 12.0758C4.5066 12.1857 4.37626 12.2729 4.23279 12.3324C4.08932 12.3918 3.93554 12.4224 3.78023 12.4224C3.62492 12.4224 3.47113 12.3918 3.32766 12.3324C3.18419 12.2729 3.05385 12.1857 2.94409 12.0758C2.83421 11.9661 2.74704 11.8357 2.68757 11.6923C2.62809 11.5488 2.59748 11.395 2.59748 11.2397C2.59748 11.0844 2.62809 10.9306 2.68757 10.7871C2.74704 10.6437 2.83421 10.5133 2.94409 10.4036L2.97955 10.3681C3.11577 10.2288 3.20716 10.052 3.24191 9.86028C3.27667 9.66859 3.2532 9.47088 3.17455 9.29266C3.09964 9.11788 2.97526 8.96883 2.81673 8.86384C2.65819 8.75885 2.47242 8.70251 2.28227 8.70175H2.18182C1.86838 8.70175 1.56778 8.57723 1.34615 8.3556C1.12451 8.13397 1 7.83337 1 7.51993C1 7.20649 1.12451 6.90589 1.34615 6.68426C1.56778 6.46262 1.86838 6.33811 2.18182 6.33811H2.235C2.43059 6.33354 2.62028 6.27023 2.7794 6.15641C2.93853 6.0426 3.05974 5.88355 3.12727 5.69993C3.20593 5.5217 3.2294 5.324 3.19464 5.13231C3.15988 4.94062 3.0685 4.76374 2.93227 4.62447L2.89682 4.58902C2.78694 4.47926 2.69977 4.34892 2.64029 4.20545C2.58082 4.06198 2.55021 3.90819 2.55021 3.75288C2.55021 3.59757 2.58082 3.44379 2.64029 3.30032C2.69977 3.15685 2.78694 3.02651 2.89682 2.91675C3.00658 2.80687 3.13692 2.7197 3.28039 2.66022C3.42386 2.60075 3.57765 2.57014 3.73295 2.57014C3.88826 2.57014 4.04205 2.60075 4.18552 2.66022C4.32899 2.7197 4.45933 2.80687 4.56909 2.91675L4.60455 2.9522C4.74381 3.08843 4.92069 3.17981 5.11238 3.21457C5.30407 3.24932 5.50177 3.22586 5.68 3.1472H5.72727C5.90205 3.0723 6.0511 2.94792 6.15609 2.78939C6.26108 2.63085 6.31742 2.44508 6.31818 2.25493V2.15447C6.31818 1.84104 6.44269 1.54044 6.66433 1.3188C6.88596 1.09717 7.18656 0.972656 7.5 0.972656C7.81344 0.972656 8.11404 1.09717 8.33567 1.3188C8.5573 1.54044 8.68182 1.84104 8.68182 2.15447V2.20766C8.68258 2.3978 8.73892 2.58358 8.84391 2.74211C8.9489 2.90065 9.09795 3.02502 9.27273 3.09993C9.45095 3.17859 9.64866 3.20205 9.84035 3.1673C10.032 3.13254 10.2089 3.04116 10.3482 2.90493L10.3836 2.86947C10.4934 2.75959 10.6237 2.67242 10.7672 2.61295C10.9107 2.55348 11.0645 2.52286 11.2198 2.52286C11.3751 2.52286 11.5289 2.55348 11.6723 2.61295C11.8158 2.67242 11.9461 2.75959 12.0559 2.86947C12.1658 2.97923 12.253 3.10957 12.3124 3.25304C12.3719 3.39652 12.4025 3.5503 12.4025 3.70561C12.4025 3.86092 12.3719 4.01471 12.3124 4.15818C12.253 4.30165 12.1658 4.43199 12.0559 4.54175L12.0205 4.5772C11.8842 4.71647 11.7928 4.89335 11.7581 5.08504C11.7233 5.27672 11.7468 5.47443 11.8255 5.65266V5.69993C11.9004 5.8747 12.0247 6.02376 12.1833 6.12875C12.3418 6.23374 12.5276 6.29008 12.7177 6.29084H12.8182C13.1316 6.29084 13.4322 6.41535 13.6539 6.63698C13.8755 6.85862 14 7.15922 14 7.47266C14 7.78609 13.8755 8.08669 13.6539 8.30833C13.4322 8.52996 13.1316 8.65447 12.8182 8.65447H12.765C12.5749 8.65523 12.3891 8.71157 12.2305 8.81656C12.072 8.92155 11.9476 9.07061 11.8727 9.24538Z" stroke="#F5F5F5" stroke-linecap="round" stroke-linejoin="round"/>
</svg>
