<svg width="16" height="14" viewBox="0 0 16 14" fill="none" xmlns="http://www.w3.org/2000/svg">
<path d="M11.3467 12.9062V11.5729C11.3467 10.8657 11.056 10.1874 10.5385 9.6873C10.0211 9.1872 9.31932 8.90625 8.58756 8.90625H3.75911C3.02735 8.90625 2.32556 9.1872 1.80813 9.6873C1.29069 10.1874 1 10.8657 1 11.5729V12.9062M13.2756 5.45999V6.09635L13.6451 6.41454M14.3866 7.2312L14.3004 8.04362C14.2893 8.1494 14.2325 8.24774 14.1413 8.31922C14.0501 8.3907 13.931 8.43012 13.8077 8.42968H12.741C12.6176 8.43012 12.4986 8.3907 12.4074 8.31922C12.3161 8.24774 12.2594 8.1494 12.2483 8.04362L12.1621 7.2312M12.1645 4.96151L12.2507 4.14908C12.2618 4.04368 12.3182 3.94564 12.4089 3.87421C12.4996 3.80278 12.6181 3.76312 12.741 3.76302H13.8126C13.9359 3.76259 14.055 3.80201 14.1462 3.87349C14.2374 3.94497 14.2942 4.04331 14.3053 4.14908L14.3915 4.96151M8.93245 3.57292C8.93245 5.04568 7.69715 6.23958 6.17333 6.23958C4.64952 6.23958 3.41422 5.04568 3.41422 3.57292C3.41422 2.10016 4.64952 0.90625 6.17333 0.90625C7.69715 0.90625 8.93245 2.10016 8.93245 3.57292ZM15 6.09635C15 6.91641 14.2279 7.5812 13.2756 7.5812C12.3232 7.5812 11.5511 6.91641 11.5511 6.09635C11.5511 5.2763 12.3232 4.61151 13.2756 4.61151C14.2279 4.61151 15 5.2763 15 6.09635Z" stroke="#F5F5F5" stroke-width="0.8" stroke-linecap="round" stroke-linejoin="round"/>
</svg>
